<svg width="24" height="24" viewBox="0 0 24 24" fill="none" xmlns="http://www.w3.org/2000/svg">
<path d="M20.4 8.40039C22.3882 8.40039 24 10.0122 24 12.0004C24 13.9886 22.3882 15.6004 20.4 15.6004L3.6 15.6004C1.61177 15.6004 -8.69081e-08 13.9886 0 12.0004C8.69081e-08 10.0122 1.61178 8.40039 3.6 8.40039L20.4 8.40039Z" fill="#7094F4"/>
<path d="M8.40039 3.6C8.40039 1.61177 10.0122 0 12.0004 0C13.9886 0 15.6004 1.61178 15.6004 3.6V20.4C15.6004 22.3882 13.9886 24 12.0004 24C10.0122 24 8.40039 22.3882 8.40039 20.4V3.6Z" fill="#7094F4"/>
<path d="M8.40039 3.6C8.40039 1.61177 10.0122 0 12.0004 0C13.9886 0 15.6004 1.61178 15.6004 3.6V20.4C15.6004 22.3882 13.9886 24 12.0004 24C10.0122 24 8.40039 22.3882 8.40039 20.4V3.6Z" fill="white" fill-opacity="0.4" style="mix-blend-mode:screen"/>
<path d="M20.4855 15.3952C21.8914 16.8011 21.8914 19.0806 20.4855 20.4865C19.0796 21.8924 16.8001 21.8924 15.3942 20.4865L3.51441 8.60672C2.10848 7.20078 2.10848 4.92132 3.51441 3.51539C4.92034 2.10945 7.19981 2.10945 8.60574 3.51539L20.4855 15.3952Z" fill="#7094F4"/>
<path d="M20.4855 15.3952C21.8914 16.8011 21.8914 19.0806 20.4855 20.4865C19.0796 21.8924 16.8001 21.8924 15.3942 20.4865L3.51441 8.60672C2.10848 7.20078 2.10848 4.92132 3.51441 3.51539C4.92034 2.10945 7.19981 2.10945 8.60574 3.51539L20.4855 15.3952Z" fill="white" fill-opacity="0.2" style="mix-blend-mode:soft-light"/>
<path d="M15.3942 3.51539C16.8001 2.10945 19.0796 2.10945 20.4855 3.51539C21.8914 4.92132 21.8914 7.20078 20.4855 8.60672L8.60574 20.4865C7.19981 21.8924 4.92034 21.8924 3.51441 20.4865C2.10848 19.0806 2.10848 16.8011 3.51441 15.3952L15.3942 3.51539Z" fill="#7094F4"/>
<path d="M15.3942 3.51539C16.8001 2.10945 19.0796 2.10945 20.4855 3.51539C21.8914 4.92132 21.8914 7.20078 20.4855 8.60672L8.60574 20.4865C7.19981 21.8924 4.92034 21.8924 3.51441 20.4865C2.10848 19.0806 2.10848 16.8011 3.51441 15.3952L15.3942 3.51539Z" fill="white" fill-opacity="0.3" style="mix-blend-mode:overlay"/>
<path fill-rule="evenodd" clip-rule="evenodd" d="M11.9996 3.59961C11.7345 3.59961 11.5196 3.81451 11.5196 4.07961V10.3773C11.5196 10.5227 11.5196 10.5953 11.4909 10.629C11.4659 10.6582 11.4285 10.6737 11.3902 10.6707C11.3461 10.6672 11.2947 10.6158 11.1918 10.513L6.73874 6.05991C6.55129 5.87246 6.24737 5.87246 6.05992 6.05991C5.87247 6.24737 5.87247 6.55129 6.05992 6.73874L10.513 11.1918C10.6158 11.2947 10.6672 11.3461 10.6707 11.3902C10.6737 11.4285 10.6582 11.4659 10.629 11.4909C10.5954 11.5196 10.5227 11.5196 10.3773 11.5196H4.07961C3.81451 11.5196 3.59961 11.7345 3.59961 11.9996C3.59961 12.2647 3.81451 12.4796 4.07961 12.4796H10.3773C10.5227 12.4796 10.5954 12.4796 10.629 12.5084C10.6582 12.5333 10.6737 12.5707 10.6707 12.609C10.6672 12.6532 10.6158 12.7046 10.513 12.8074L6.05992 17.2605C5.87246 17.4479 5.87246 17.7519 6.05992 17.9393C6.24737 18.1268 6.55129 18.1268 6.73874 17.9393L11.1918 13.4862C11.2947 13.3834 11.3461 13.332 11.3902 13.3285C11.4285 13.3255 11.4659 13.341 11.4909 13.3702C11.5196 13.4039 11.5196 13.4766 11.5196 13.622V19.9196C11.5196 20.1847 11.7345 20.3996 11.9996 20.3996C12.2647 20.3996 12.4796 20.1847 12.4796 19.9196V13.622C12.4796 13.4766 12.4796 13.4039 12.5084 13.3702C12.5333 13.341 12.5707 13.3255 12.609 13.3285C12.6532 13.332 12.7046 13.3834 12.8074 13.4862L17.2605 17.9393C17.4479 18.1268 17.7519 18.1268 17.9393 17.9393C18.1268 17.7519 18.1268 17.4479 17.9393 17.2605L13.4862 12.8074C13.3834 12.7046 13.332 12.6532 13.3285 12.609C13.3255 12.5707 13.341 12.5333 13.3702 12.5084C13.4039 12.4796 13.4766 12.4796 13.622 12.4796H19.9196C20.1847 12.4796 20.3996 12.2647 20.3996 11.9996C20.3996 11.7345 20.1847 11.5196 19.9196 11.5196H13.622C13.4766 11.5196 13.4039 11.5196 13.3702 11.4909C13.341 11.4659 13.3255 11.4285 13.3285 11.3902C13.332 11.3461 13.3834 11.2947 13.4862 11.1918L17.9393 6.73874C18.1268 6.55128 18.1268 6.24736 17.9393 6.05991C17.7519 5.87246 17.4479 5.87246 17.2605 6.05991L12.8074 10.513C12.7046 10.6158 12.6532 10.6672 12.609 10.6707C12.5707 10.6737 12.5333 10.6582 12.5084 10.629C12.4796 10.5954 12.4796 10.5227 12.4796 10.3773V4.07961C12.4796 3.81451 12.2647 3.59961 11.9996 3.59961Z" fill="white"/>
</svg>
